' Generated by UML Generator
' Encoded: pLbVK-Cu37_lf_1ZEpGx-zovOnOO7fZfiJVGOP-TnBGU7BjdEnpTlUMpd__LiHEd91HsUQ5KicJh9rcIrIz2GYxhYap40wPRo6452WA5E9EIuxoMwAfWz1P_H-3pP8DB10hC2u8c4vWBoM4XxN9mpKfsIGjO8WfB1dvC03WHkofdP0LpWXRWjla2_Wo_VLeZUKNLEMY1fZCjHs6b1TG1w5f_9vYYwxhA4Ly0JALPWfwKq6g3BZOGqqLhUxKYoym9aBoELauF2yuMu97XKejYyNMBEAJbDomt5v2GgMBcZ144gUON6rGyJBSSFM9MYzLkguwi_yxiXrLn9WHUKsrbMnhIStGheKGLehB5N2EgTfP6PdySJyDYYUxbhNA5bzal-pcPDCvO4bZ14dhReF79izeDozq2N9fFJQcGtB1o0Vuodve2-Leim18B-OU1vsbxwX5DgfxA1mNbYZqWEWS9wTax0_QIhzu4q3l8NmOJgckp0FxoHB152WB8XgDpsChV6cvdPkS2CsgX8LxA1S45gxQQmV5wa-GqG3Mwei1Agfo3jC80rFUuaJ_J2V1fUrpcUuIaZbBVW5GeVQnu4CVO_MAU6ujB1CSv5BXmjuNPVQoRtAOwLJ_N5FAT8KZ6dRkZWF2AB4enAIKz1ydD-eBYVRA7MIRLGL4XKQbt2tVjnxMDeGxdqPVAWjD6KQ-FC3I4del5sfZsxV8wM0_4v61qKuw941VXYHJl1ecQoCWNRRZlLEQn4NiIKgO9AzDPO1zjHpP1xzlXH5QVMsYNM3PsDxHsgJfywTMkF5Ba2EEqN54PAR7VX-X8E2JI5AkPWoPzfiCu5MI3CyRGwdbT4nATqX76WMRBHAJ7ayPfKa7FaL05-6_8TPFplMbvdhR-zhUpIqTa6gv-yomnh3ADJ26f7lg2gPl9wqBbGWD2LZI41GYucZUmUGwafcR3gt9W1pq2l2DgjpkcUXGmbycoLpyKh98HZuH1PV8rbRlVn4kLUoKkdAcnHnhZ8rAd-pyMeVqPEW7Hsln3HOXwrTZCy0WvjbNkplsNibJnqa-VOTtg4RtOGIZIXUC6tIELp7m_yAfa587MQ5nji6ZoT4oVIlLd5QCqR1xnGk4QNPZE2VkdHgwJKOQf8w8mycuj3SDJrSzGz2yuunpk3FlKzZ645P0ehuiBLbDfNYrgwMSV6whnkLQF77tAvfcZY4l_qj4izzRnHdg3QgWmaGZT85bpEYg0hMsgqhfEROpok5cvjpT0bOKoB8xFSeFeEIjtbkYnCdMK29HcPJzi6lW92CmHCR2vvru4dDqvoghH0LHhazv-3desdwLH6EEWaVvGjkJg77QncEQ9C_LU92rYSUVc_yk-piGT9GIgA_7hRK-d76-uDUtzHgY_-_PvGrKdj9-RjBlBPu4gLGy9eqtPrMjMtP57GcNayL3p7BJrpZu85i7RyrV7OZJeNEgatNN9Vjm0JHNykcsySiBkxzLJD0wkK5clC-oieQNnBVnnqCPl6qnGJzREZqxBHlkXp9n_XEIh06dzQfDbf-qvG_gdX2pxR-1AbcKUs-uKlKzFC4rkbhZuw_2xx6Rmc9GEsQVnD38SkOMoBKPIPvldHd3HM2bv7Zym2hc1TC1FeXMCRxm6zMKIZcCw33TXwT0ZOeJBVaZH4Mdc3XrMSf3WLpLTxw75iHCIR_8-VOcbxN2CdxalA7Ah3khmxyX1klpg7ftwSTMdA7YSfFtLUclqwN4jlcStII_Wxi-NOfeEsejRsiJrnJrQ3IVsQq2ArxfEhqUJvyRQsjr5ZtHtMO-QrksDjVY2cKeCjjBqIEwPyQunjP7uWcXPL-H_
' URL: http://www.plantuml.com/plantuml/uml/pLbVK-Cu37_lf_1ZEpGx-zovOnOO7fZfiJVGOP-TnBGU7BjdEnpTlUMpd__LiHEd91HsUQ5KicJh9rcIrIz2GYxhYap40wPRo6452WA5E9EIuxoMwAfWz1P_H-3pP8DB10hC2u8c4vWBoM4XxN9mpKfsIGjO8WfB1dvC03WHkofdP0LpWXRWjla2_Wo_VLeZUKNLEMY1fZCjHs6b1TG1w5f_9vYYwxhA4Ly0JALPWfwKq6g3BZOGqqLhUxKYoym9aBoELauF2yuMu97XKejYyNMBEAJbDomt5v2GgMBcZ144gUON6rGyJBSSFM9MYzLkguwi_yxiXrLn9WHUKsrbMnhIStGheKGLehB5N2EgTfP6PdySJyDYYUxbhNA5bzal-pcPDCvO4bZ14dhReF79izeDozq2N9fFJQcGtB1o0Vuodve2-Leim18B-OU1vsbxwX5DgfxA1mNbYZqWEWS9wTax0_QIhzu4q3l8NmOJgckp0FxoHB152WB8XgDpsChV6cvdPkS2CsgX8LxA1S45gxQQmV5wa-GqG3Mwei1Agfo3jC80rFUuaJ_J2V1fUrpcUuIaZbBVW5GeVQnu4CVO_MAU6ujB1CSv5BXmjuNPVQoRtAOwLJ_N5FAT8KZ6dRkZWF2AB4enAIKz1ydD-eBYVRA7MIRLGL4XKQbt2tVjnxMDeGxdqPVAWjD6KQ-FC3I4del5sfZsxV8wM0_4v61qKuw941VXYHJl1ecQoCWNRRZlLEQn4NiIKgO9AzDPO1zjHpP1xzlXH5QVMsYNM3PsDxHsgJfywTMkF5Ba2EEqN54PAR7VX-X8E2JI5AkPWoPzfiCu5MI3CyRGwdbT4nATqX76WMRBHAJ7ayPfKa7FaL05-6_8TPFplMbvdhR-zhUpIqTa6gv-yomnh3ADJ26f7lg2gPl9wqBbGWD2LZI41GYucZUmUGwafcR3gt9W1pq2l2DgjpkcUXGmbycoLpyKh98HZuH1PV8rbRlVn4kLUoKkdAcnHnhZ8rAd-pyMeVqPEW7Hsln3HOXwrTZCy0WvjbNkplsNibJnqa-VOTtg4RtOGIZIXUC6tIELp7m_yAfa587MQ5nji6ZoT4oVIlLd5QCqR1xnGk4QNPZE2VkdHgwJKOQf8w8mycuj3SDJrSzGz2yuunpk3FlKzZ645P0ehuiBLbDfNYrgwMSV6whnkLQF77tAvfcZY4l_qj4izzRnHdg3QgWmaGZT85bpEYg0hMsgqhfEROpok5cvjpT0bOKoB8xFSeFeEIjtbkYnCdMK29HcPJzi6lW92CmHCR2vvru4dDqvoghH0LHhazv-3desdwLH6EEWaVvGjkJg77QncEQ9C_LU92rYSUVc_yk-piGT9GIgA_7hRK-d76-uDUtzHgY_-_PvGrKdj9-RjBlBPu4gLGy9eqtPrMjMtP57GcNayL3p7BJrpZu85i7RyrV7OZJeNEgatNN9Vjm0JHNykcsySiBkxzLJD0wkK5clC-oieQNnBVnnqCPl6qnGJzREZqxBHlkXp9n_XEIh06dzQfDbf-qvG_gdX2pxR-1AbcKUs-uKlKzFC4rkbhZuw_2xx6Rmc9GEsQVnD38SkOMoBKPIPvldHd3HM2bv7Zym2hc1TC1FeXMCRxm6zMKIZcCw33TXwT0ZOeJBVaZH4Mdc3XrMSf3WLpLTxw75iHCIR_8-VOcbxN2CdxalA7Ah3khmxyX1klpg7ftwSTMdA7YSfFtLUclqwN4jlcStII_Wxi-NOfeEsejRsiJrnJrQ3IVsQq2ArxfEhqUJvyRQsjr5ZtHtMO-QrksDjVY2cKeCjjBqIEwPyQunjP7uWcXPL-H_
' Generated on: 2025-11-21T14:47:39.191888800

@startuml
skinparam classAttributeIconSize 0
hide circle

abstract class NodoEncadenado {
  +symbolTable: SymbolTable = SymbolTable.getInstance()
  +name: String
  +lineNumber: int
  +nextInTheChain: NodoEncadenado
  --
  +setNextInTheChain(nextInTheChain: NodoEncadenado): void
  +isOperandWithCall(): boolean
  +check(previousType: Type): Type
  +isAssignable(): boolean
  +canBeStatement(): boolean
  +generate(): void
  +generate(isLeftSide: boolean): void
}

class NodoLlamadaEncadenada {
  ~entity: Entity
  ~method: Method
  ~args: List<NodoExp>
  --
  +NodoLlamadaEncadenada(tkn: Token, args: List<NodoExp>)
  +check(previousType: Type): Type
  +isAssignable(): boolean
  +canBeStatement(): boolean
  +isOperandWithCall(): boolean
  +generate(): void
  +generate(isLeftSide: boolean): void
}

class NodoVarEncadenada {
  ~entity: Entity
  ~attr: Attribute
  --
  +NodoVarEncadenada(tkn: Token)
  +check(previousType: Type): Type
  +isOperandWithCall(): boolean
  +isAssignable(): boolean
  +canBeStatement(): boolean
  +generate(): void
  +generate(isLeftSide: boolean): void
}

class NodoAsignacion {
  ~leftSide: NodoExpComp
  ~rightSide: NodoExpComp
  --
  +NodoAsignacion(tkn: Token, leftSide: NodoExpComp, rightSide: NodoExpComp)
  +check(): Type
  +isAssignable(): boolean
  +canBeStatement(): boolean
  +generate(): void
}

abstract class NodoExp {
  +symbolTable: SymbolTable = SymbolTable.getInstance()
  +value: String
  +name: String
  +lineNumber: int
  +type: Type
  --
  +check(): Type
  +isAssignable(): boolean
  +isOperandWithCall(): boolean
  +canBeStatement(): boolean
  +generate(): void
}

class NodoExpBasica {
  ~operand: NodoOperando
  ~unaryOperator: Token
  --
  +NodoExpBasica()
  +NodoExpBasica(unaryOperator: Token, operand: NodoOperando)
  +check(): Type
  +isOperandWithCall(): boolean
  +generate(): void
  +generate(isLeftSide: boolean): void
  +getExpectedType(): Type
  +canBeStatement(): boolean
}

class NodoExpComp {
  ~leftSide: NodoExpComp
  ~rightSide: NodoExpBasica
  --
  +NodoExpComp()
  +NodoExpComp(leftSide: NodoExpComp, operator: Token, rightSide: NodoExpBasica)
  +check(): Type
  +isOperandWithCall(): boolean
  +isAssignable(): boolean
  +generate(isLeftSide: boolean): void
  +generate(): void
  +getExpectedTypes(): Type
  +getResultType(): Type
}

class NodoExpVacia {
  +NodoExpVacia()
  +check(): Type
}

abstract class NodoOperando {
  +symbolTable: SymbolTable = SymbolTable.getInstance()
  +nextInTheChain: NodoEncadenado
  --
  +setNextInTheChain(nextInTheChain: NodoEncadenado): void
}

class NodoBooleanLit {
  +NodoBooleanLit(tkn: Token)
  +generate(): void
}

class NodoCharLit {
  +NodoCharLit(tkn: Token)
  +generate(): void
}

class NodoIntLit {
  +NodoIntLit(tkn: Token)
  +generate(): void
}

abstract class NodoLit {
  +NodoLit(tkn: Token, type: Type)
  +check(): Type
  +generate(): void
  +isOperandWithCall(): boolean
  +generate(isLeftSide: boolean): void
}

class NodoNullLit {
  +NodoNullLit(tkn: Token)
  +generate(): void
}

class NodoStringLit {
  +NodoStringLit(tkn: Token)
  +generate(): void
}

class NodoExpresionParentizada {
  ~exp: NodoExp
  --
  +NodoExpresionParentizada(exp: NodoExp)
  +check(): Type
  +isOperandWithCall(): boolean
  +isAssignable(): boolean
  +canBeStatement(): boolean
  +generate(isLeftSide: boolean): void
  +generate(): void
}

class NodoLlamadaConstructor {
  -constructor: Constructor
  -args: List<NodoExp>
  --
  +NodoLlamadaConstructor(classId: Token, args: List<NodoExp>)
  +check(): Type
  +isOperandWithCall(): boolean
  +canBeStatement(): boolean
  +generate(): void
}

class NodoLlamadaMetodo {
  -method: Method
  ~args: List<NodoExp>
  --
  +NodoLlamadaMetodo(tkn: Token, args: List<NodoExp>)
  +check(): Type
  +canBeStatement(): boolean
  +isOperandWithCall(): boolean
  +generate(): void
}

class NodoLlamadaMetodoEstatico {
  -classId: Token
  -methodId: Token
  -entity: Entity
  -method: Method
  ~args: List<NodoExp>
  --
  +NodoLlamadaMetodoEstatico(classId: Token, methodId: Token, args: List<NodoExp>)
  +check(): Type
  +isOperandWithCall(): boolean
  +canBeStatement(): boolean
  +generate(): void
}

class NodoLlamadaVar {
  ~variable: Variable
  --
  +NodoLlamadaVar(tkn: Token)
  +check(): Type
  +isAssignable(): boolean
  +generate(): void
  +generate(isLeftSide: boolean): void
  +isOperandWithCall(): boolean
}

abstract class NodoReferencia {
  +isAssignable(): boolean
  +canBeStatement(): boolean
}

class NodoReferenciaThis {
  +NodoReferenciaThis(thisTkn: Token)
  +isOperandWithCall(): boolean
  +check(): Type
  +generate(): void
  +generate(isLeftSide: boolean): void
}

class NodoBloque {
  +sentences: List<NodoSentencia> = new ArrayList<>()
  +localVarsCount: int = 0
  --
  +getName(): String
  +getLineNumber(): int
  +check(): void
  +guaranteeReturn(): boolean
  +generate(): void
}

class NodoBloqueNulo {
  +check(): void
  +guaranteeReturn(): boolean
}

class NodoIf {
  ~cond: NodoExp
  ~thenBody: NodoSentencia
  ~elseBody: NodoSentencia
  -{static} labelCounter: int = 0
  --
  +NodoIf(tkn: Token, cond: NodoExp, thenBody: NodoSentencia, elseBody: NodoSentencia)
  +check(): void
  +getName(): String
  +getLineNumber(): int
  +guaranteeReturn(): boolean
  +generate(): void
  -bodyReturns(body: NodoSentencia): boolean
}

class NodoReturn {
  ~returnExp: NodoExp
  --
  +NodoReturn(tkn: Token, returnExp: NodoExp)
  +check(): void
  +getName(): String
  +getLineNumber(): int
  +guaranteeReturn(): boolean
  +generate(): void
}

abstract class NodoSentencia {
  ~symbolTable: SymbolTable = SymbolTable.getInstance()
  +name: String
  +lineNumber: int
  --
  +getName(): String
  +getLineNumber(): int
  +check(): void
  +guaranteeReturn(): boolean
  +generate(): void
}

class NodoSentenciaConExp {
  ~exp: NodoExp
  ~semicolon: Token
  ~expType: Type
  --
  +NodoSentenciaConExp(tkn: Token, exp: NodoExp, semicolon: Token)
  +getName(): String
  +getLineNumber(): int
  +check(): void
  +guaranteeReturn(): boolean
  +generate(): void
}

class NodoSentenciaVacia {
  +check(): void
  +getName(): String
  +getLineNumber(): int
  +guaranteeReturn(): boolean
  +generate(): void
}

class NodoVarLocal {
  ~exp: NodoExpComp
  ~assignOp: Token
  +offset: int
  --
  +NodoVarLocal(tkn: Token, exp: NodoExpComp, assignOp: Token)
  +getName(): String
  +getLineNumber(): int
  +check(): void
  +generate(): void
}

class NodoWhile {
  ~cond: NodoExp
  ~body: NodoSentencia
  -{static} labelCounter: int = 0
  --
  +NodoWhile(tkn: Token, cond: NodoExp, body: NodoSentencia)
  +check(): void
  +getName(): String
  +getLineNumber(): int
  +guaranteeReturn(): boolean
  +generate(): void
}

NodoEncadenado --> NodoEncadenado
NodoLlamadaEncadenada --|> NodoEncadenado
NodoLlamadaEncadenada o-- NodoExp
NodoVarEncadenada --|> NodoEncadenado
NodoAsignacion --|> NodoExpComp
NodoAsignacion --> NodoExpComp
NodoExpBasica --|> NodoExpComp
NodoExpBasica --> NodoOperando
NodoExpComp --|> NodoExp
NodoExpComp --> NodoExpComp
NodoExpComp --> NodoExpBasica
NodoExpVacia --|> NodoExpComp
NodoOperando --|> NodoExpBasica
NodoOperando --> NodoEncadenado
NodoBooleanLit --|> NodoLit
NodoCharLit --|> NodoLit
NodoIntLit --|> NodoLit
NodoLit --|> NodoOperando
NodoNullLit --|> NodoLit
NodoStringLit --|> NodoLit
NodoExpresionParentizada --|> NodoReferencia
NodoExpresionParentizada --> NodoExp
NodoLlamadaConstructor --|> NodoReferencia
NodoLlamadaConstructor o-- NodoExp
NodoLlamadaMetodo --|> NodoReferencia
NodoLlamadaMetodo o-- NodoExp
NodoLlamadaMetodoEstatico --|> NodoReferencia
NodoLlamadaMetodoEstatico o-- NodoExp
NodoLlamadaVar --|> NodoReferencia
NodoReferencia --|> NodoOperando
NodoReferenciaThis --|> NodoReferencia
NodoBloque --|> NodoSentencia
NodoBloque o-- NodoSentencia
NodoBloqueNulo --|> NodoBloque
NodoIf --|> NodoSentencia
NodoIf --> NodoExp
NodoIf --> NodoSentencia
NodoReturn --|> NodoSentencia
NodoReturn --> NodoExp
NodoSentenciaConExp --|> NodoSentencia
NodoSentenciaConExp --> NodoExp
NodoSentenciaVacia --|> NodoSentencia
NodoVarLocal --> NodoExpComp
NodoWhile --|> NodoSentencia
NodoWhile --> NodoExp
NodoWhile --> NodoSentencia
@enduml